{"title":"Grand Piano 2013 WEBRip 480p x264 AAC - VYTO [P2PDL]","uid":9550995,"size":363582228,"categoryP":"video","categoryS":"movies","magnet":"?xt=urn:btih:04d2ae2a1462d189f83f4d0c591f7de389799697&amp;dn=Grand+Piano+2013+WEBRip+480p+x264+AAC+-+VYTO+%5BP2PDL%5D&amp;tr=udp%3A%2F%2Ftracker.openbittorrent.com%3A80&amp;tr=udp%3A%2F%2Fopen.demonii.com%3A1337&amp;tr=udp%3A%2F%2Ftracker.coppersurfer.tk%3A6969&amp;tr=udp%3A%2F%2Fexodus.desync.com%3A6969","seeders":1,"leechers":0,"uploader":"ValidusVyto","files":-1,"time":1391263283,"description":"Grand.Piano.2013.WEBRip.480p.x264.AAC-VYTO\n\n\nGenre: Thriller &lt;a href=&quot;\nhttp://www.imdb.com/title/tt2039345/&quot; rel=&quot;nofollow&quot; target=&quot;_NEW&quot;&gt;\nhttp://www.imdb.com/title/tt2039345/&lt;/a&gt;\n\n\nFormat                                   : MPEG-4\nFile size                                : 342 MiB\nDuration                                 : 1h 30mn\nOverall bit rate mode                    : Variable\nOverall bit rate                         : 529 Kbps\n\nVideo\nFormat                                   : AVC\nBit rate mode                            : Variable\nBit rate                                 : 460 Kbps\nWidth                                    : 720 pixels\nHeight                                   : 304 pixels\nDisplay aspect ratio                     : 2.40:1\nFrame rate                               : 23.976 fps\nBit depth                                : 8 bits\nStream size                              : 297 MiB (87%)\nWriting library                          : x264\n\nAudio\nFormat                                   : AAC\nBit rate mode                            : Variable\nBit rate                                 : 64.2 Kbps\nChannel(s)                               : 2 channels\nChannel positions                        : Front: L R\nSampling rate                            : 48.0 KHz\nStream size                              : 41.4 MiB (12%)\nLanguage                                 : English\n\nSubtitle                                 : Yes (English)\n &lt;a href=&quot;\nhttp://ultraimg.com/images/tLpEH.png&quot; rel=&quot;nofollow&quot; target=&quot;_NEW&quot;&gt;\nhttp://ultraimg.com/images/tLpEH.png&lt;/a&gt; &lt;a href=&quot;\nhttp://ultraimg.com/images/SsuCL.png&quot; rel=&quot;nofollow&quot; target=&quot;_NEW&quot;&gt;\nhttp://ultraimg.com/images/SsuCL.png&lt;/a&gt; &lt;a href=&quot;\nhttp://ultraimg.com/images/r8GV9.png&quot; rel=&quot;nofollow&quot; target=&quot;_NEW&quot;&gt;\nhttp://ultraimg.com/images/r8GV9.png&lt;/a&gt; &lt;a href=&quot;\nhttp://ultraimg.com/images/FYd6z.png&quot; rel=&quot;nofollow&quot; target=&quot;_NEW&quot;&gt;\nhttp://ultraimg.com/images/FYd6z.png&lt;/a&gt; &lt;a href=&quot;\nhttp://ultraimg.com/images/ABgQR.png&quot; rel=&quot;nofollow&quot; target=&quot;_NEW&quot;&gt;\nhttp://ultraimg.com/images/ABgQR.png&lt;/a&gt; &lt;a href=&quot;\nhttp://ultraimg.com/images/voztQ.png&quot; rel=&quot;nofollow&quot; target=&quot;_NEW&quot;&gt;\nhttp://ultraimg.com/images/voztQ.png&lt;/a&gt;\n\n\n----------------------------------------------------------------------------------------------------\n\n\nEncoded using revolutionary 10bit encoding, which enables us to provide you more crispier \nand sharper images at small sizes, just make sure you follow our instructions without a fault.\nRecommend to you to use latest version of VLC player. Install K-Lite Codec Pack or shark007 codecs\nin case of any kind of problem in playback (For non-VLC Media Player users). Alternatively, install\nCore AVC codecs, the fastest decoder that there is coupled with Community Center Codec Pack and play\non Windows Media Player Classic. Check sample to be sure.\nEnjoy!\n\nEncoder Notes:Looking For Early Access To Anything You Can Provide DVDScr, R5, DVDR, BluRay, Direct\nAudio, Music Releases and Seedboxes. We require dedicated servers, so as to do more \nand fast releases of movies.\nIf You Got anything to offer please contact us at &quot;&lt;a class=&quot;__cf_email__&quot; href=&quot;/cdn-cgi/l/email-protection&quot; data-cfemail=&quot;13636174537b66607b3d707c7e&quot;&gt;[email&amp;#160;protected]&lt;/a&gt;&lt;script cf-hash='f9e31' type=&quot;text/javascript&quot;&gt;\n/* &lt;![CDATA[ */!function(){try{var t=&quot;currentScript&quot;in document?document.currentScript:function(){for(var t=document.getElementsByTagName(&quot;script&quot;),e=t.length;e--;)if(t[e].getAttribute(&quot;cf-hash&quot;))return t[e]}();if(t&amp;&amp;t.previousSibling){var e,r,n,i,c=t.previousSibling,a=c.getAttribute(&quot;data-cfemail&quot;);if(a){for(e=&quot;&quot;,r=parseInt(a.substr(0,2),16),n=2;a.length-n;n+=2)i=parseInt(a.substr(n,2),16)^r,e+=String.fromCharCode(i);e=document.createTextNode(e),c.parentNode.replaceChild(e,c)}}}catch(u){}}();/* ]]&gt; */&lt;/script&gt;&quot;.","torrent":{"xt":"urn:btih:04d2ae2a1462d189f83f4d0c591f7de389799697","amp;dn":"Grand+Piano+2013+WEBRip+480p+x264+AAC+-+VYTO+%5BP2PDL%5D","amp;tr":["udp%3A%2F%2Ftracker.openbittorrent.com%3A80","udp%3A%2F%2Fopen.demonii.com%3A1337","udp%3A%2F%2Ftracker.coppersurfer.tk%3A6969","udp%3A%2F%2Fexodus.desync.com%3A6969"],"infoHash":"04d2ae2a1462d189f83f4d0c591f7de389799697","infoHashBuffer":{"type":"Buffer","data":[4,210,174,42,20,98,209,137,248,63,77,12,89,31,125,227,137,121,150,151]},"announce":[],"urlList":[]}}